HIERARCHY
ROOT SpineBase
{
  OFFSET 0.000000 0.000000 0.000000
  CHANNELS 6 Xposition Yposition Zposition Zrotation Xrotation Yrotation
  JOINT SpineMid
  {
    OFFSET 0.000000 29.764559 0.000000
    CHANNELS 3 Zrotation Xrotation Yrotation
    JOINT SpineShoulder
    {
      OFFSET -0.008750 22.109536 -0.765618
      CHANNELS 3 Zrotation Xrotation Yrotation
      JOINT Neck
      {
        OFFSET 0.011996 7.322965 -0.569656
        CHANNELS 3 Zrotation Xrotation Yrotation
        JOINT Head
        {
          OFFSET -3.758653 13.717283 -0.386164
          CHANNELS 3 Zrotation Xrotation Yrotation
          End Site
          {
            OFFSET 0 0 0
          }
        }
      }
      JOINT ShoulderLeft
      {
        OFFSET -17.167668 -4.390395 3.193057
        CHANNELS 3 Zrotation Xrotation Yrotation
        JOINT ElbowLeft
        {
          OFFSET -2.430046 -27.331307 1.233766
          CHANNELS 3 Zrotation Xrotation Yrotation
          JOINT WristLeft
          {
            OFFSET 1.922603 -21.905037 -6.170534
            CHANNELS 3 Zrotation Xrotation Yrotation
            JOINT HandLeft
            {
              OFFSET 1.030546 -1.807424 -0.785022
              CHANNELS 3 Zrotation Xrotation Yrotation
              JOINT HandTipLeft
              {
                OFFSET 1.824271 -7.875998 0.548928
                CHANNELS 3 Zrotation Xrotation Yrotation
                End Site
                {
                  OFFSET 0 0 0
                }
              }
              JOINT ThumbLeft
              {
                OFFSET 3.727031 2.438468 -2.191645
                CHANNELS 3 Zrotation Xrotation Yrotation
                End Site
                {
                  OFFSET 0 0 0
                }
              }
            }
          }
        }
      }
      JOINT ShoulderRight
      {
        OFFSET 15.114686 -2.975591 -6.408840
        CHANNELS 3 Zrotation Xrotation Yrotation
        JOINT ElbowRight
        {
          OFFSET 6.036626 -25.857472 1.728801
          CHANNELS 3 Zrotation Xrotation Yrotation
          JOINT WristRight
          {
            OFFSET 0.618534 -22.087789 -5.632438
            CHANNELS 3 Zrotation Xrotation Yrotation
            JOINT HandRight
            {
              OFFSET -2.059268 -2.900966 0.693635
              CHANNELS 3 Zrotation Xrotation Yrotation
              JOINT HandTipRight
              {
                OFFSET 0.178651 -6.470404 -0.683349
                CHANNELS 3 Zrotation Xrotation Yrotation
                End Site
                {
                  OFFSET 0 0 0
                }
              }
              JOINT ThumbRight
              {
                OFFSET -3.279848 2.068997 -1.675118
                CHANNELS 3 Zrotation Xrotation Yrotation
                End Site
                {
                  OFFSET 0 0 0
                }
              }
            }
          }
        }
      }
    }
  }
  JOINT HipLeft
  {
    OFFSET -6.672741 0.443830 -1.806952
    CHANNELS 3 Zrotation Xrotation Yrotation
    JOINT KneeLeft
    {
      OFFSET 3.425303 -28.758838 6.491583
      CHANNELS 3 Zrotation Xrotation Yrotation
      JOINT AnkleLeft
      {
        OFFSET 5.490111 -31.743197 5.807122
        CHANNELS 3 Zrotation Xrotation Yrotation
        JOINT FootLeft
        {
          OFFSET -2.314782 -3.682131 -12.821417
          CHANNELS 3 Zrotation Xrotation Yrotation
          End Site
          {
            OFFSET 0 0 0
          }
        }
      }
    }
  }
  JOINT HipRight
  {
    OFFSET 7.329388 1.321984 -5.016732
    CHANNELS 3 Zrotation Xrotation Yrotation
    JOINT KneeRight
    {
      OFFSET 6.386673 -28.643436 4.134837
      CHANNELS 3 Zrotation Xrotation Yrotation
      JOINT AnkleRight
      {
        OFFSET 2.593385 -31.024165 6.111727
        CHANNELS 3 Zrotation Xrotation Yrotation
        JOINT FootRight
        {
          OFFSET -2.440169 -3.674603 -12.827230
          CHANNELS 3 Zrotation Xrotation Yrotation
          End Site
          {
            OFFSET 0 0 0
          }
        }
      }
    }
  }
}
MOTION
Frames: 13
Frame Time: 0.033333
-27.844957 41.922402 355.981981 0.633418 -38.396773 -64.292602 -0.912579 0.234842 64.570247 -0.024614 1.986388 0.089118 -7.042700 37.863158 4.602590 0.000000 0.000000 0.000000 1.629797 42.227172 -1.740556 32.861754 -29.727755 0.072992 -31.521328 -7.046422 2.329946 20.030881 37.589960 6.554849 0.000000 0.000000 0.000000 0.000000 0.000000 0.000000 -27.187874 0.558755 -1.392456 15.802872 11.633361 8.242676 64.723328 20.150064 -18.610795 -58.427771 -17.448075 -9.903661 0.000000 0.000000 0.000000 0.000000 0.000000 0.000000 -16.545912 8.281932 63.387533 -132.230254 63.999304 132.681333 149.611878 -81.563189 113.399412 0.000000 0.000000 0.000000 -79.883888 18.240532 91.902668 5.463203 3.510022 -3.251675 2.777031 -53.464344 -10.519975 0.000000 0.000000 0.000000
-27.510632 40.029638 355.806272 -0.576224 -33.087153 -67.034382 -1.109796 0.403492 66.858504 -0.078311 1.141089 0.060936 -1.910748 27.894220 0.243424 0.000000 0.000000 0.000000 -2.843025 46.253956 0.535967 37.849561 -39.871230 8.016336 -30.647387 -4.988068 2.431189 33.303388 39.090351 -0.376965 0.000000 0.000000 0.000000 0.000000 0.000000 0.000000 -28.428022 -0.883795 -1.883744 16.359791 12.569218 8.717025 76.674281 16.788788 -19.235503 -69.739339 -15.850616 -11.815542 0.000000 0.000000 0.000000 0.000000 0.000000 0.000000 -11.099343 5.630424 64.904751 -134.464025 56.443472 130.895479 149.346933 -71.876755 97.498238 0.000000 0.000000 0.000000 -75.758377 15.435103 91.479655 12.343224 11.600426 1.097383 -17.095556 -66.229333 -17.753621 0.000000 0.000000 0.000000
-28.085344 39.363971 356.280237 -2.066369 -30.654298 -67.066896 -1.180754 0.507045 66.451088 -0.150131 0.232716 0.010479 -2.052651 19.233681 -1.559931 0.000000 0.000000 0.000000 -4.492504 49.390888 1.781716 37.178118 -45.061034 11.473745 -28.315810 -3.731889 1.643024 41.904495 33.762161 -4.678482 0.000000 0.000000 0.000000 0.000000 0.000000 0.000000 -26.902255 -0.863091 -2.215606 15.852499 12.912786 8.869340 78.821395 18.702639 -25.078697 -70.799134 -24.330537 -12.748277 0.000000 0.000000 0.000000 0.000000 0.000000 0.000000 -10.810616 8.017446 64.882503 -130.875160 53.908065 119.968791 154.215736 -62.747164 86.365870 0.000000 0.000000 0.000000 -73.372850 15.426100 91.201531 21.495318 11.965614 6.600100 -36.154240 -57.008627 -25.304494 0.000000 0.000000 0.000000
-28.393911 39.915884 354.473436 -1.742424 -28.774530 -68.106796 -1.182981 0.491944 67.614946 -0.154565 0.667053 0.022283 -11.717013 11.134108 -0.592966 0.000000 0.000000 0.000000 -2.154669 46.176900 0.181848 24.214737 -45.112708 6.963803 -21.980449 -2.217335 -1.422226 43.548885 33.671469 -5.554001 0.000000 0.000000 0.000000 0.000000 0.000000 0.000000 -24.344942 -2.145696 -3.308726 14.625886 9.535836 8.022231 77.222431 21.337166 -29.520189 -61.749634 -24.685445 -10.212735 0.000000 0.000000 0.000000 0.000000 0.000000 0.000000 -7.409084 5.423104 65.421168 -127.513424 52.958883 115.320874 162.119853 -60.128271 88.735094 0.000000 0.000000 0.000000 -69.536574 13.007228 88.981042 29.307654 11.324959 10.915782 -45.355006 -50.432194 -26.714232 0.000000 0.000000 0.000000
-28.439163 40.703097 354.701841 -3.378069 -29.982084 -66.754470 -1.091538 0.551952 65.755898 -0.134756 0.566404 -0.032013 -12.908437 5.105088 -2.832485 0.000000 0.000000 0.000000 -12.328008 48.317205 6.873011 30.897090 -46.395037 9.059818 -23.757383 -1.397713 0.756047 49.225268 31.953957 -8.592209 0.000000 0.000000 0.000000 0.000000 0.000000 0.000000 -22.668441 0.539638 -2.335346 14.808758 6.481008 7.415431 66.237649 23.817181 -26.552376 -55.659955 -20.740088 -8.109376 0.000000 0.000000 0.000000 0.000000 0.000000 0.000000 -8.751741 7.276621 63.693882 -120.364663 53.385716 105.438804 157.862022 -60.338726 72.031920 0.000000 0.000000 0.000000 -68.997961 15.069554 88.881887 33.953756 16.492579 12.764276 -58.628411 -53.537570 -33.103804 0.000000 0.000000 0.000000
-28.671427 41.708562 355.071277 -3.747366 -33.075205 -62.842473 -0.913698 0.199685 61.694259 -0.045977 0.653484 -0.059290 -11.858604 2.775725 -4.691137 0.000000 0.000000 0.000000 -16.139701 47.863012 9.944826 35.656583 -43.378551 8.316394 -24.725530 -0.054491 2.023823 42.752587 32.402647 -5.413300 0.000000 0.000000 0.000000 0.000000 0.000000 0.000000 -21.507230 5.084646 -0.554174 15.241554 2.531034 6.431089 57.594172 24.945806 -22.247260 -55.140905 -16.059565 -7.501356 0.000000 0.000000 0.000000 0.000000 0.000000 0.000000 -13.659632 11.768434 60.832108 -112.445569 54.978452 93.807509 141.486095 -61.744707 53.977445 0.000000 0.000000 0.000000 -70.375951 19.700687 88.344188 30.437374 13.037889 10.892529 -51.048499 -56.374060 -26.253180 0.000000 0.000000 0.000000
-29.000897 43.272957 355.982404 -3.099762 -36.961921 -55.330259 -0.857844 0.472669 54.246519 -0.167904 0.418529 0.004679 -6.902304 10.231960 -4.216927 0.000000 0.000000 0.000000 -15.460743 46.343877 9.873030 30.836270 -36.999152 3.832173 -24.427615 -2.501375 0.707409 39.945547 34.952043 -4.348432 0.000000 0.000000 0.000000 0.000000 0.000000 0.000000 -21.455706 10.263160 1.578881 15.448300 -0.294009 5.628970 49.951268 23.174476 -14.915504 -49.104892 -3.653186 -5.923950 0.000000 0.000000 0.000000 0.000000 0.000000 0.000000 -19.912166 18.488176 55.970695 -99.846861 57.957103 79.316604 141.992991 -63.890835 59.750420 0.000000 0.000000 0.000000 -72.074728 27.954810 86.984201 20.335146 4.760918 5.611271 -26.516362 -57.114986 -11.905332 0.000000 0.000000 0.000000
-28.995848 44.608357 356.955186 -0.248788 -40.475078 -42.546863 -0.837816 0.750398 42.476028 -0.324004 0.629895 0.157732 -9.168019 17.434000 -1.690501 0.000000 0.000000 0.000000 -12.748994 41.901146 7.706246 23.475212 -27.451123 -1.012829 -24.574884 -3.181761 1.306439 28.659387 32.022757 0.396414 0.000000 0.000000 0.000000 0.000000 0.000000 0.000000 -21.194967 14.924704 3.056799 14.069395 -2.587232 5.035268 41.913385 21.448024 -8.689971 -47.517144 -2.497942 -5.800533 0.000000 0.000000 0.000000 0.000000 0.000000 0.000000 -24.447859 26.737261 47.541451 -73.349021 59.503720 53.994223 95.805166 -65.338328 22.538935 0.000000 0.000000 0.000000 -72.669159 38.499042 82.368421 13.460979 -0.874498 1.691543 -9.439413 -55.878706 -3.766116 0.000000 0.000000 0.000000
-28.938533 46.616743 356.911259 2.820874 -41.348098 -27.697410 -0.573692 0.727018 28.864355 -0.409176 0.678168 0.280439 -7.155043 20.394870 -2.340005 0.000000 0.000000 0.000000 -10.312941 37.429954 5.620403 17.935932 -21.142344 -3.499049 -25.123992 -6.871004 -0.731400 18.080885 29.993318 4.771286 0.000000 0.000000 0.000000 0.000000 0.000000 0.000000 -19.012028 16.527344 2.302329 10.426935 -2.847180 5.220398 38.143330 20.633741 -6.185491 -45.457630 -1.448061 -5.665629 0.000000 0.000000 0.000000 0.000000 0.000000 0.000000 -24.254404 35.093855 36.408461 -35.976885 50.810089 22.502870 48.047483 -56.681612 -12.415635 0.000000 0.000000 0.000000 -67.022127 50.139260 72.691158 6.323787 -8.484393 -2.621072 3.699027 -48.525026 3.093655 0.000000 0.000000 0.000000
-29.291540 49.704353 356.018164 5.563352 -40.381574 -11.959013 -0.274697 0.732120 14.153330 -0.403859 0.443996 0.371456 -4.531154 21.597655 -3.629790 0.000000 0.000000 0.000000 -7.922190 31.110836 3.749649 12.503939 -13.515377 -5.184122 -24.317885 -14.024027 -6.796529 9.955560 33.000161 10.658551 0.000000 0.000000 0.000000 0.000000 0.000000 0.000000 -15.127022 15.634649 0.005383 4.963192 -1.388092 6.020608 35.617737 20.495532 -5.542007 -42.720242 -2.395910 -5.554680 0.000000 0.000000 0.000000 0.000000 0.000000 0.000000 -18.380759 43.008357 21.620864 -9.934891 30.728189 6.411985 14.928499 -35.610559 -21.874506 0.000000 0.000000 0.000000 -46.977344 60.234532 49.311388 -0.363031 -10.932245 -5.835767 10.233692 -40.879101 3.549566 0.000000 0.000000 0.000000
-29.869122 53.291850 354.618403 7.654364 -38.044167 0.189234 -0.067936 0.859489 2.628478 -0.551234 0.690213 0.458116 -1.467045 20.561308 -5.039421 0.000000 0.000000 0.000000 -5.794219 23.613113 2.443185 7.924750 -7.380338 -5.937280 -25.336946 -20.153348 -11.852908 7.538418 35.587116 13.839968 0.000000 0.000000 0.000000 0.000000 0.000000 0.000000 -9.580818 11.097007 -3.323778 -2.485236 2.732558 7.881265 35.025051 20.583152 -6.802526 -39.245918 -7.306608 -5.519157 0.000000 0.000000 0.000000 0.000000 0.000000 0.000000 -10.412633 46.204369 7.393290 -0.196094 12.962442 2.726059 4.673467 -20.346749 -21.635873 0.000000 0.000000 0.000000 -20.281803 60.485852 19.072715 -4.269481 -8.800689 -6.442864 12.511936 -37.041666 3.140425 0.000000 0.000000 0.000000
-31.052578 57.395376 351.888592 8.252965 -32.061653 7.639437 0.062173 1.176402 -5.083578 -0.688050 0.462226 0.485253 2.525715 10.539236 -7.167635 0.000000 0.000000 0.000000 -3.920066 13.076760 1.866329 5.542794 -3.082926 -6.714613 -30.544095 -26.723590 -16.643059 8.847355 43.536848 16.186626 0.000000 0.000000 0.000000 0.000000 0.000000 0.000000 -3.584583 7.751079 -4.892367 -9.735812 4.580430 8.422310 31.473597 16.499781 -4.359777 -32.576679 -6.922264 -4.882708 0.000000 0.000000 0.000000 0.000000 0.000000 0.000000 -4.125722 41.679956 -3.208717 3.509093 2.937478 1.850035 2.847343 -8.593650 -25.514770 0.000000 0.000000 0.000000 -4.659739 49.694811 -0.233251 -4.561676 -6.239234 -4.816971 11.044647 -35.033404 3.152293 0.000000 0.000000 0.000000
-32.667745 61.828429 348.210152 8.449321 -26.939391 12.497789 0.101297 1.232941 -10.268046 -0.683948 0.329077 0.463690 3.210813 6.351416 -6.693626 0.000000 0.000000 0.000000 0.003783 2.943541 1.580869 0.671352 4.200657 -6.638511 -34.712875 -28.062706 -16.001278 21.306639 44.518169 7.136462 0.000000 0.000000 0.000000 0.000000 0.000000 0.000000 2.553313 3.887247 -5.779792 -17.104306 6.339869 9.164377 28.601615 13.700533 -3.407045 -27.178619 -10.017266 -4.305475 0.000000 0.000000 0.000000 0.000000 0.000000 0.000000 -1.212062 34.672825 -9.753923 3.735091 0.581991 1.351907 1.833287 -8.300482 -23.500536 0.000000 0.000000 0.000000 -0.687221 38.093056 -8.648248 -2.647670 -2.828954 -2.496833 8.481863 -34.650996 3.419128 0.000000 0.000000 0.000000
